<svg id="Layer_1" data-name="Layer 1" xmlns="http://www.w3.org/2000/svg" xmlns:xlink="http://www.w3.org/1999/xlink" viewBox="0 0 400 400"><defs><linearGradient id="linear-gradient" x1="211.41" y1="527.71" x2="378.34" y2="360.78" gradientTransform="translate(-20.45 -322.97) rotate(8.74)" gradientUnits="userSpaceOnUse"><stop offset="0" stop-color="#c66300"/><stop offset="0.43" stop-color="#ef8800"/><stop offset="0.94" stop-color="#ffc84d"/></linearGradient><clipPath id="clip-path"><path d="M194.4,162.1a5.12,5.12,0,0,0-6.56,6.24,29.78,29.78,0,0,0,46.89,15.86,5.11,5.11,0,0,0-1.45-8.91Z" fill="none"/></clipPath></defs><path d="M233.22,258.71s22.31,67.21-45.55,61.89l4.71,28.94" fill="none" stroke="#572011" stroke-linecap="round" stroke-linejoin="round" stroke-width="10.28"/><rect x="12.58" y="13.17" width="34.33" height="23.87" rx="11.94" transform="translate(42.85 -11.54) rotate(69.5)" fill="#572011"/><ellipse cx="195.71" cy="385.88" rx="153.74" ry="12.07" fill="#e6e6e6"/><path d="M146.76,10.85c1.54,2.73,11.88,20.36,34,25.21a52.69,52.69,0,0,0,37.91-6.35" fill="#006837"/><path d="M218.68,29.71c-1.15-2.42-10.17-20.62-31.88-26.17-21.36-5.46-37.79,5.73-40,7.31" fill="#009245"/><path d="M222,40.65c68.8,10.57,102.66,79.91,97.71,133.21-.56,6.07-6.3,58.49-52.22,86-30.83,18.46-62.44,14.2-81,11.73-18.44-3.22-49.87-8.65-73.73-35.52-35.54-40-25.27-91.73-24-97.69C100.06,86,153.18,30.07,222,40.65Z" fill="url(#linear-gradient)"/><line x1="221.87" y1="50.47" x2="215.03" y2="16.95" fill="none" stroke="#754c24" stroke-linecap="round" stroke-miterlimit="10" stroke-width="7.71"/><path d="M204.59,46.63A21.64,21.64,0,0,0,232,49.72" fill="none" stroke="#ef8800" stroke-linecap="round" stroke-miterlimit="10" stroke-width="5.66"/><circle cx="104.77" cy="184.39" r="2.61" fill="#b55200"/><circle cx="99.22" cy="157.64" r="1.73" fill="#b55200"/><circle cx="123.36" cy="191.87" r="1.52" fill="#b55200"/><circle cx="105.64" cy="130.78" r="2.27" fill="#b55200"/><circle cx="107.57" cy="209.16" r="2.18" fill="#b55200"/><circle cx="143.33" cy="232" r="2.55" fill="#b55200"/><circle cx="143.74" cy="246.1" r="1.54" fill="#b55200"/><circle cx="183.76" cy="250.92" r="1.32" fill="#b55200"/><circle cx="156.18" cy="233.98" r="1.32" fill="#b55200"/><circle cx="202.39" cy="264.05" r="1.6" fill="#b55200"/><circle cx="169.22" cy="253.96" r="2.18" fill="#b55200"/><circle cx="118.24" cy="229.48" r="1.33" fill="#b55200"/><circle cx="177.72" cy="237.29" r="1.86" fill="#b55200"/><circle cx="159.36" cy="213.31" r="1.59" fill="#b55200"/><circle cx="219.39" cy="247.75" r="1.36" fill="#b55200"/><circle cx="121.51" cy="150.67" r="1.36" fill="#b55200"/><path d="M264.29,78.74a91.62,91.62,0,0,1,31.59,50.52" fill="none" stroke="#fcf1db" stroke-linecap="round" stroke-miterlimit="10" stroke-width="10.28"/><path d="M299.43,145.79c.11,1.22.2,2.47.27,3.76q.15,3.09.13,5.91" fill="none" stroke="#fcf1db" stroke-linecap="round" stroke-miterlimit="10" stroke-width="10.28"/><ellipse cx="261.02" cy="178.99" rx="7.62" ry="12.7" transform="translate(7.69 368.7) rotate(-71.27)" fill="#e0570b"/><ellipse cx="171.36" cy="148.58" rx="7.62" ry="12.7" transform="matrix(0.32, -0.95, 0.95, 0.32, -24.39, 263.15)" fill="#e0570b"/><path d="M194.4,162.1a5.12,5.12,0,0,0-6.56,6.24,29.78,29.78,0,0,0,46.89,15.86,5.11,5.11,0,0,0-1.45-8.91Z" fill="#572011"/><circle cx="267.5" cy="158.57" r="7.2" fill="#572011"/><circle cx="270.41" cy="156.73" r="2.68" fill="#fff"/><circle cx="178.74" cy="128.48" r="7.2" fill="#572011"/><circle cx="181.64" cy="126.63" r="2.68" fill="#fff"/><g clip-path="url(#clip-path)"><ellipse cx="205.71" cy="191.36" rx="12.42" ry="21.41" transform="translate(-41.57 324.72) rotate(-71.27)" fill="#d4145a"/></g><path d="M345.37,250.2c-6.41,12-18,18.94-30.77,18.94a35.52,35.52,0,0,1-7.11-.72,38.85,38.85,0,0,1-25.88-18.81,50.12,50.12,0,0,1-6.64-21,5.14,5.14,0,0,1,10.23-1,41.65,41.65,0,0,0,4.13,14.55c3.78,7.6,10.28,14.17,20.2,16.16,11,2.22,21.29-2.76,26.77-13,10.17-19-7.29-39.92-20.36-52,1.22-4.39,2.06-8.3,2.63-11.46C333.59,194.64,360.18,222.53,345.37,250.2Z" fill="#572011"/><path d="M154.78,236.34s13,69.62-53.55,55.12l.73,29.31" fill="none" stroke="#572011" stroke-linecap="round" stroke-linejoin="round" stroke-width="10.28"/><line x1="105.49" y1="152.55" x2="29.74" y2="37.24" fill="none" stroke="#572011" stroke-linecap="round" stroke-linejoin="round" stroke-width="10.28"/><path d="M71.55,174s108.21,27.05,119.57,35.17,9.74,20.56,5.95,29.22S131.61,282.78,120.79,285s-24.35-10.28-9.2-22.19,11.36-51-25.43-59.58S59.59,171,71.55,174Z" fill="#0083ef"/><rect x="139.43" y="209.07" width="217.31" height="14.58" transform="translate(-28 37.09) rotate(-8.1)" fill="#0083ef"/><path d="M139.52,213.65H334.93a4,4,0,0,1,4,4v0a4,4,0,0,1-4,4H139.52a0,0,0,0,1,0,0v-7.95A0,0,0,0,1,139.52,213.65Z" transform="translate(-28.26 35.86) rotate(-8.1)" fill="#fff"/><path d="M340.3,207.05s2.6,5.83,11.54,4.65,6.64-4,12.76-5.12,17.57.83,19.15-9.3-3.74-14.9-13-12.93-9,8.21-16.65,6.38S336.26,196.88,340.3,207.05Z" fill="#0083ef"/><circle cx="133.62" cy="254.81" r="7.96" fill="#fff"/><path d="M142.35,243.72a11.55,11.55,0,0,1-3.26-22.87Z" fill="#fff"/><circle cx="149.65" cy="260.44" r="5.21" fill="#fff"/><rect x="258.1" y="207.55" width="34.33" height="23.87" rx="11.94" transform="translate(384.47 -115.21) rotate(69.5)" fill="#572011"/></svg>